<?xml version="1.0" standalone="no"?>
<!DOCTYPE svg PUBLIC "-//W3C//DTD SVG 20010904//EN"
 "http://www.w3.org/TR/2001/REC-SVG-20010904/DTD/svg10.dtd">
<svg version="1.0" xmlns="http://www.w3.org/2000/svg"
 width="300.000000pt" height="300.000000pt" viewBox="0 0 300.000000 300.000000"
 preserveAspectRatio="xMidYMid meet">
<metadata>
Created by potrace 1.10, written by Peter Selinger 2001-2011
</metadata>
<g transform="translate(0.000000,300.000000) scale(0.050000,-0.050000)"
fill="#000000" stroke="none">
<path d="M2962 4593 c-26 -32 -505 -1216 -496 -1226 10 -9 192 63 213 84 10
11 65 145 122 299 56 154 108 288 114 298 10 16 64 -127 180 -472 30 -89 37
-95 127 -115 52 -11 141 -38 198 -59 65 -25 99 -31 93 -16 -6 13 -115 285
-243 604 -245 609 -267 652 -308 603z"/>
<path d="M2788 3390 c-150 -32 -386 -129 -538 -221 l-115 -69 -395 0 c-330 0
-398 -5 -407 -29 -20 -52 43 -94 119 -79 63 11 68 9 68 -38 0 -31 20 -67 50
-90 67 -53 76 -21 -159 -557 -143 -325 -203 -483 -189 -497 33 -32 65 27 233
423 l155 366 5 -409 c5 -344 11 -410 35 -410 24 0 30 67 35 415 l5 415 167
-394 c155 -363 203 -445 233 -396 6 10 -83 233 -199 495 -225 508 -227 514
-180 540 17 10 38 44 46 76 l16 59 209 2 c196 2 214 6 308 64 487 300 950 298
1431 -6 82 -53 104 -57 297 -58 l209 -2 15 -57 c9 -31 31 -68 50 -82 44 -32
49 -16 -190 -558 -216 -490 -220 -499 -168 -489 32 6 344 684 345 750 1 13 10
29 22 36 14 9 20 -117 18 -393 -2 -356 2 -408 29 -413 28 -6 32 41 34 410 1
387 3 411 31 346 16 -38 89 -209 162 -380 138 -326 171 -382 205 -348 13 13
-51 180 -190 494 -236 534 -228 504 -160 558 30 23 50 59 50 90 0 47 5 50 70
40 77 -13 136 26 117 77 -9 24 -78 29 -411 29 -359 0 -405 4 -453 37 -294 208
-726 316 -1015 253z"/>
<path d="M3263 3125 c209 -535 214 -553 162 -583 -19 -10 -30 -23 -25 -28 9
-9 599 -23 685 -17 71 6 32 41 -60 54 -128 18 -194 83 -288 286 l-78 166 -187
89 c-223 105 -239 108 -209 33z"/>
<path d="M2431 3053 c-112 -62 -121 -72 -184 -224 -79 -190 -147 -258 -274
-278 -77 -11 -131 -48 -78 -52 174 -14 694 -1 701 18 7 22 -18 31 -69 25 -142
-17 -154 69 -47 353 94 251 98 239 -49 158z"/>
<path d="M1080 1764 c0 -43 135 -196 227 -258 262 -177 538 -142 778 98 141
142 167 190 90 168 -348 -101 -817 -102 -1060 -2 -20 8 -35 5 -35 -6z"/>
<path d="M3780 1766 c0 -10 47 -71 104 -135 261 -292 640 -310 907 -42 124
124 174 203 116 185 -211 -65 -277 -76 -487 -77 -201 0 -445 30 -595 74 -25 8
-45 5 -45 -5z"/>
</g>
</svg>
