<?xml version="1.0" standalone="no"?>
<!DOCTYPE svg PUBLIC "-//W3C//DTD SVG 20010904//EN"
 "http://www.w3.org/TR/2001/REC-SVG-20010904/DTD/svg10.dtd">
<svg version="1.0" xmlns="http://www.w3.org/2000/svg"
 width="900.000000pt" height="675.000000pt" viewBox="0 0 900.000000 675.000000"
 preserveAspectRatio="xMidYMid meet">
<metadata>
Created by potrace 1.10, written by Peter Selinger 2001-2011
</metadata>
<g transform="translate(0.000000,675.000000) scale(0.100000,-0.100000)"
fill="#000000" stroke="none">
<path d="M4375 5510 c-49 -8 -70 -17 -150 -65 -22 -13 -50 -24 -62 -25 -12 0
-24 -4 -27 -8 -6 -10 35 -55 69 -78 14 -9 29 -32 35 -53 12 -43 13 -128 2
-135 -4 -2 -23 11 -41 30 -37 37 -65 44 -75 17 -5 -12 10 -33 56 -75 35 -31
67 -58 71 -58 7 0 54 33 112 77 6 5 22 14 38 20 19 9 27 20 27 38 0 30 -20 33
-45 5 -18 -20 -45 -27 -45 -11 0 4 4 21 9 37 5 16 12 46 16 67 5 34 12 41 52
59 35 16 44 24 40 39 -4 13 3 25 20 36 53 35 225 -24 312 -108 87 -84 156
-203 190 -326 10 -36 20 -47 71 -78 87 -53 92 -42 48 90 -69 209 -191 368
-348 453 -85 46 -262 71 -375 52z m-60 -212 c7 -30 -7 -109 -20 -111 -6 -1
-11 28 -13 66 -2 55 0 67 12 67 9 0 18 -10 21 -22z"/>
<path d="M4373 5083 c-26 -20 -58 -47 -70 -60 -23 -24 -38 -29 -48 -14 -3 5
-31 17 -63 26 -49 15 -64 15 -110 4 -29 -7 -57 -18 -63 -26 -6 -7 -16 -13 -22
-13 -13 0 -73 -56 -182 -171 -278 -293 -273 -288 -287 -276 -8 7 -22 24 -31
39 -32 51 -88 47 -68 -5 8 -20 6 -31 -10 -51 -24 -31 -17 -48 19 -44 l27 3 6
-105 c3 -58 10 -124 17 -147 30 -108 56 -215 72 -293 9 -47 22 -101 46 -186 8
-28 14 -59 14 -69 0 -10 6 -41 14 -69 8 -28 22 -82 31 -121 9 -38 21 -90 27
-113 9 -35 8 -46 -2 -52 -7 -4 -56 -6 -109 -3 -93 5 -223 -13 -269 -36 -9 -5
-37 -17 -62 -27 -25 -10 -71 -34 -104 -54 -32 -19 -66 -40 -76 -45 -62 -36
-68 -80 -17 -118 35 -27 118 -67 139 -67 7 0 33 -8 58 -16 35 -13 88 -17 240
-18 206 -1 213 0 355 57 66 26 142 82 161 119 21 40 14 72 -40 183 -24 50 -73
151 -109 225 -36 74 -115 237 -175 361 -140 285 -152 317 -155 397 -2 63 -1
65 25 72 51 15 125 76 293 245 114 115 186 179 219 196 63 31 74 55 21 45 -61
-12 -101 -44 -275 -220 -91 -92 -189 -183 -218 -203 -48 -31 -56 -34 -69 -20
-9 8 -12 23 -9 34 3 11 109 123 235 249 258 258 302 290 401 288 30 0 75 -4
99 -9 34 -6 47 -5 55 6 20 26 91 76 124 87 42 14 146 -6 230 -44 31 -14 73
-32 92 -41 19 -8 47 -22 62 -29 14 -8 33 -14 41 -14 8 0 20 -7 27 -15 7 -8 20
-15 30 -15 10 0 23 -7 30 -15 7 -8 23 -15 36 -15 13 0 24 -4 24 -10 0 -5 12
-13 27 -16 15 -4 34 -13 41 -21 17 -17 55 -17 50 0 -3 6 -15 14 -29 15 -13 2
-28 10 -32 18 -4 8 -19 14 -31 14 -13 0 -26 7 -30 15 -3 8 -14 15 -24 15 -11
0 -25 7 -32 15 -7 8 -23 15 -36 15 -13 0 -24 4 -24 9 0 5 -12 14 -27 20 -16 6
-35 15 -43 20 -15 10 -172 84 -243 114 -21 10 -62 17 -92 17 -46 0 -60 -5
-102 -37z m-524 -1613 c50 -103 76 -169 71 -174 -6 -6 -30 -3 -63 7 -30 9 -63
17 -74 17 -34 0 -33 -4 -89 240 -8 36 -20 83 -26 105 -12 44 -36 145 -45 187
-3 15 -2 36 1 45 7 18 18 -3 225 -427z"/>
<path d="M5220 4961 c0 -6 5 -13 10 -16 6 -3 10 -24 10 -45 0 -33 -4 -41 -27
-52 -26 -12 -28 -19 -33 -83 l-5 -70 -40 4 c-21 1 -50 7 -63 12 -14 5 -27 7
-30 4 -3 -3 0 -35 6 -72 6 -38 14 -100 17 -139 11 -133 34 -171 55 -87 12 49
30 120 52 205 8 32 20 50 35 57 20 9 23 18 23 65 0 47 4 58 30 85 40 39 54 79
41 114 -9 22 -17 27 -46 27 -19 0 -35 -4 -35 -9z"/>
<path d="M4377 4938 c-16 -11 -33 -30 -38 -42 -5 -12 -13 -28 -17 -36 -26 -45
-32 -62 -27 -70 9 -14 34 0 41 23 3 12 24 48 45 79 51 76 50 87 -4 46z"/>
<path d="M5276 4784 c-11 -28 -6 -123 8 -161 7 -21 21 -64 30 -95 37 -132 50
-175 62 -213 6 -22 20 -69 29 -105 10 -36 23 -85 31 -110 7 -25 20 -70 29
-100 34 -120 48 -167 60 -205 7 -22 20 -69 30 -105 10 -36 24 -83 32 -106 8
-22 13 -56 11 -75 l-3 -34 -135 -6 c-74 -3 -148 -11 -163 -18 -61 -24 -70 -5
-43 93 27 95 38 151 47 221 28 241 30 273 19 366 -19 165 -27 223 -40 274 -27
112 -42 171 -50 190 -7 18 -9 17 -15 -10 -8 -34 -25 -94 -49 -174 -9 -29 -16
-60 -16 -68 0 -9 -7 -38 -16 -67 -33 -104 -38 -122 -45 -161 -10 -51 -28 -121
-41 -160 -5 -16 -13 -46 -18 -65 -4 -19 -17 -71 -30 -115 -12 -44 -29 -105
-37 -135 -8 -30 -21 -77 -29 -105 -26 -90 -28 -115 -12 -115 17 0 37 38 48 90
7 34 38 147 67 245 8 28 18 69 22 93 9 49 18 62 27 39 12 -31 -13 -241 -41
-342 -8 -27 -15 -66 -17 -85 l-3 -35 49 -5 c27 -3 51 -10 53 -16 2 -7 -16 -21
-39 -33 -55 -26 -153 -113 -182 -160 -12 -20 -28 -56 -36 -80 l-14 -43 44 -41
c42 -39 43 -41 30 -71 -7 -17 -15 -59 -18 -93 -2 -35 -8 -63 -12 -63 -13 0
-48 53 -74 112 -13 30 -32 60 -42 68 -16 14 -17 9 -9 -110 11 -183 11 -225 0
-225 -25 0 -46 101 -50 240 -2 77 -4 142 -4 144 -1 2 -20 -17 -43 -41 -40 -42
-90 -79 -163 -119 -16 -9 -46 -25 -65 -35 -147 -81 -169 -113 -181 -261 -11
-148 -21 -177 -83 -239 -48 -47 -58 -53 -110 -59 -45 -6 -56 -11 -54 -24 8
-41 123 -64 197 -39 55 19 141 76 200 135 70 69 86 70 77 1 -9 -64 -57 -139
-146 -228 -57 -56 -182 -151 -230 -173 -8 -4 -28 -16 -45 -27 -34 -22 -93 -50
-106 -50 -21 0 -79 182 -79 248 0 16 5 43 11 61 6 18 9 34 6 37 -2 3 -23 -4
-45 -16 -55 -29 -86 -20 -101 29 -8 28 -8 46 0 70 8 23 8 36 1 43 -8 8 -13 2
-17 -18 -4 -16 -11 -41 -17 -56 -21 -57 30 -198 97 -266 19 -18 24 -39 30
-105 10 -123 49 -260 101 -353 39 -70 124 -181 181 -235 53 -51 181 -149 194
-149 5 0 9 21 9 48 0 93 61 252 152 394 43 68 141 210 158 231 6 7 29 36 52
66 24 30 66 82 93 117 28 34 79 99 115 144 191 240 249 333 284 460 17 62 32
215 28 274 -3 49 7 56 82 56 201 0 435 85 553 199 102 100 106 146 23 317 -29
60 -70 147 -92 194 -22 47 -73 153 -113 235 -40 83 -97 202 -128 265 -30 63
-82 171 -114 240 -112 234 -113 236 -113 294 0 63 -7 86 -25 86 -7 0 -16 -7
-19 -16z m174 -505 c0 -10 3 -19 8 -19 4 0 18 -24 31 -52 30 -65 125 -265 216
-453 37 -77 83 -172 102 -212 34 -72 36 -101 4 -87 -9 3 -45 9 -81 13 l-65 6
-18 55 c-10 30 -23 69 -28 85 -6 17 -15 46 -19 65 -5 19 -18 67 -30 105 -12
39 -25 86 -30 105 -4 19 -13 49 -18 65 -6 17 -18 57 -27 90 -9 33 -23 78 -31
100 -8 23 -14 49 -14 58 0 10 -7 32 -16 48 -16 31 -12 65 6 54 5 -3 10 -15 10
-26z"/>
<path d="M4233 4106 c-23 -6 -48 -17 -55 -24 -6 -6 -17 -12 -24 -12 -11 0 -44
-42 -44 -56 0 -4 9 1 21 12 16 14 36 19 84 19 57 0 67 -3 95 -30 23 -23 30
-37 28 -60 -3 -27 -8 -31 -53 -41 l-50 -11 73 -8 c40 -4 74 -11 77 -14 2 -4
-1 -37 -7 -73 l-12 -66 -87 -4 c-69 -2 -91 -7 -109 -23 -19 -18 -20 -20 -5
-31 19 -14 14 -41 -15 -74 -22 -26 -12 -50 21 -50 12 0 26 -15 40 -42 27 -53
23 -50 43 -42 23 9 20 31 -9 66 -22 26 -25 39 -23 81 4 59 30 84 93 89 38 3
40 1 36 -22 -2 -14 -5 -74 -8 -133 l-4 -109 -70 -69 c-38 -38 -69 -71 -69 -73
0 -10 54 -15 87 -8 21 5 52 5 70 0 34 -9 88 -69 115 -128 32 -72 46 -106 53
-138 4 -18 14 -36 22 -39 25 -10 153 130 197 215 15 29 15 38 5 70 -20 56 -8
81 45 102 30 11 33 22 11 40 -21 18 -19 37 8 51 29 15 66 60 67 80 0 8 5 20
12 27 6 6 13 47 16 90 4 64 1 86 -17 124 -21 46 -71 98 -96 98 -7 0 -27 19
-44 41 -32 44 -106 104 -156 128 -17 7 -38 17 -47 22 -32 16 -163 39 -218 38
-30 -1 -74 -7 -97 -13z"/>
<path d="M4107 3683 c-10 -10 -8 -61 2 -68 12 -7 17 1 26 43 5 24 3 32 -8 32
-7 0 -17 -3 -20 -7z"/>
</g>
</svg>
